<svg xmlns="http://www.w3.org/2000/svg" viewBox="0 0 762 200" width="762" height="200" fill="#111"><polygon points="0.00,0.00 10.40,0.00 10.40,200.00 0.00,200.00"/><polygon points="141.60,0.00 152.00,0.00 152.00,200.00 141.60,200.00"/><polygon points="0.00,0.00 36.00,0.00 152.00,200.00 116.00,200.00"/><g transform="translate(126.40,0)"><polygon points="73.60,0.00 84.00,0.00 10.40,200.00 0.00,200.00"/><polygon points="73.60,0.00 109.60,0.00 160.00,200.00 124.00,200.00"/><polygon points="20.80,144.00 144.00,144.00 144.00,149.20 20.80,149.20"/></g><rect x="316.4" y="0" width="1.8" height="200"/><g transform="translate(345.28,88.00)"><path transform="translate(0.000,0) scale(0.023000,-0.023000)" d="M285.38520017266273 1500V31.728271484375H519.2462998479605V0H48.526801735162735V31.728271484375H252.07245603203773V1468.271728515625H48.526801735162735V1500ZM1494.3073090016842 1500V1468.271728515625H1283.752733901143V-20H1239.9085127246308L262.2324805408716 1500H575.8459642380476L1250.9945648610592 429.7678706198931V1468.2819331170103H1021.9854966253042V1500Z"/><path transform="translate(44.466,0) scale(0.023000,-0.023000)" d="M48.526801735162735 0V31.728271484375H268.5979307110493V1468.271728515625H48.526801735162735V1500H770.7615332752466V1468.271728515625H530.7845461609272V31.728271484375H770.7615332752466V0Z"/><path transform="translate(72.303,0) scale(0.023000,-0.023000)" d="M801.0725877732038 -20Q586.0730760544538 -20 428.1232774704695 79.8961181640625Q270.1734788864851 179.792236328125 183.90080916136503 353.792236328125Q97.62813943624496 527.792236328125 97.62813943624496 750Q97.62813943624496 973 183.90080916136503 1146.6038818359375Q270.1734788864851 1320.207763671875 428.1232774704695 1420.1038818359375Q586.0730760544538 1520 801.0725877732038 1520Q896.7805345505476 1520 980.6541966125369 1487.0817710980773Q1064.5278586745262 1454.1635421961546 1129.0293428599834 1394.572558119893L1270.7325422167778 1500H1299.054207161069V1071.7630711942911H1265.8090706318617Q1242.2240293174982 1194.0640452206135 1178.2177136838436 1285.8649228587747Q1114.211398050189 1377.6658004969358 1022.1549163535237 1428.5823751091957Q930.0984346568584 1479.4989497214556 821.0725877732038 1479.4989497214556Q702.1721361130476 1479.4989497214556 620.6717699021101 1417.593910753727Q539.1714036911726 1355.6888717859983 490.821153447032 1250.9721873104572Q442.47090320289135 1146.2555028349161 420.7707689255476 1016.3504638671875Q399.07063464820385 886.4454248994589 399.07063464820385 750Q399.07063464820385 614 420.7707689255476 483.87224858254194Q442.47090320289135 353.7444971650839 490.821153447032 249.02781268954277Q539.1714036911726 144.31112821400166 620.6717699021101 82.40608924627304Q702.1721361130476 20.501050278544426 821.0725877732038 20.501050278544426Q920.6867652088404 20.501050278544426 999.5315159484744 52.032056137919426Q1078.3762666881084 83.56306199729443 1136.8424148485065 139.63227102905512Q1195.3085630089045 195.7014800608158 1232.6180964633822 269.66026048362255Q1269.92762991786 343.6190409064293 1286.1713849902153 428.2369288057089H1319.2918683886528V0H1290.494880989194L1160.235658019781 112.67927959561348Q1094.4095695316792 50.75587871670723 1002.9301093667746 15.377939358353615Q911.45064920187 -20 801.0725877732038 -20Z"/><path transform="translate(114.147,0) scale(0.023000,-0.023000)" d="M761.7725999802351 -20Q605.2484917063744 -20 482.02964501178417 38.750030517578125Q358.810798317194 97.50006103515625 272.8921019807458 202.86892216652632Q186.9734056442976 308.2377832978964 142.30077254027128 448.0575764573143Q97.62813943624496 587.8773696167323 97.62813943624496 750Q97.62813943624496 912.1226303832677 145.09715755937077 1051.9424235426857Q192.56617568249655 1191.7622167021036 280.1701227809594 1297.1310778334737Q367.77406987942226 1402.4999389648438 490.0234264825631 1461.2499694824219Q612.2727830857038 1520 761.7725999802351 1520Q911.2724168747663 1520 1033.1222398728132 1461.2499694824219Q1154.97206287086 1402.4999389648438 1242.9219224900007 1297.1310778334737Q1330.8717821091413 1191.7622167021036 1377.9716966599226 1051.9424235426857Q1425.0716112107038 912.1226303832677 1425.0716112107038 750Q1425.0716112107038 587.8773696167323 1380.4716966599226 448.0575764573143Q1335.8717821091413 308.2377832978964 1250.3030918762088 202.86892216652632Q1164.7344016432762 97.50006103515625 1041.515554948686 38.750030517578125Q918.2967082540958 -20 761.7725999802351 -20ZM761.7725999802351 9.589223727583885Q876.8732469528913 9.589223727583885 947.9236314743757 69.07820688188076Q1018.9740159958601 128.56719003617764 1057.4514988586307 232.04506962746382Q1095.9289817214012 335.52294921875 1109.779048860073 469.06170654296875Q1123.629115998745 602.6004638671875 1123.629115998745 750.1038818359375Q1123.629115998745 897.5449732393026 1106.8517674133182 1031.0110120102763Q1090.0744188278913 1164.47705078125 1049.9514988586307 1267.9549303725362Q1009.82857888937 1371.4328099638224 939.4693012273353 1430.9217931181192Q869.1100235653008 1490.4107762724161 761.7725999802351 1490.4107762724161Q654.6719530075788 1490.4107762724161 584.1215684860945 1430.9087649899034Q513.5711839646101 1371.4067537073906 473.17097644507885 1267.9380459183685Q432.7707689255476 1164.4693381293462 415.9207017868757 1031.0071556843245Q399.07063464820385 897.5449732393026 399.07063464820385 750.0727185532451Q399.07063464820385 602.6004638671875 413.27070789039135 469.0480530645985Q427.47078113257885 335.4956422620095 465.67097644507885 232.0379302132015Q503.87117175757885 128.58021816439353 575.6215684860945 69.0847209459887Q647.3719652146101 9.589223727583885 761.7725999802351 9.589223727583885Z"/><path transform="translate(158.153,0) scale(0.023000,-0.023000)" d="M48.526801735162735 0V31.728271484375H228.61902585625648V1468.271728515625H48.526801735162735V1500H670.6160961687565V1468.271728515625H491.31610837578773V31.728271484375H733.8160800039768Q847.0786018818617 31.728271484375 922.9017219990492 61.26708984375Q998.7248421162367 90.805908203125 1044.8016548603773 145.76025390625Q1090.878467604518 200.714599609375 1113.5201864019036 277.8572998046875Q1136.1619051992893 355 1142.7616366446018 450H1175.044483229518V0Z"/><path transform="translate(195.443,0) scale(0.023000,-0.023000)" d="M413.9646075516939 470.99300695955753V502.72127844393253H1035.4340427070856V470.99300695955753ZM848.5989362597466 1529.207763671875 1367.5375252217054 31.728271484375H1519.853523567319V0H875.8157241046429V31.728271484375H1064.4786166250706L683.1563443392515 1210.8223949968815L270.68610349297523 31.728271484375H489.0021241903305V0H48.526801735162735V31.728271484375H233.93035634477457L761.015793055296 1529.207763671875ZM722.9955614060163 1680.068645209074 704.9923295527697 1701.8446558564901 887.9192577898502 1934.9996337890625Q913.6489234119654 1972.5067749023438 947.5711597874761 1980.2377062514424Q981.4933961629868 1987.9686376005411 1012.4552588611841 1976.183659620583Q1043.4171215593815 1964.398681640625 1057.816901832819 1940.7989501953125Q1074.7166210711002 1915.1993408203125 1071.8705822527409 1882.8063514605165Q1069.0245434343815 1850.4133621007204 1049.3022582307458 1823.9410463795066Q1029.57997302711 1797.4687306582928 993.9184032976627 1787.3012084960938Z"/><path transform="translate(240.507,0) scale(0.023000,-0.023000)" d="M622.8912753164768 -29.207763671875Q503.94286635518074 -29.207763671875 416.1562210842967 8.445546969771385Q328.36957581341267 46.09885761141777 266.9136141836643 111.0522781163454L127.94454869627953 -20H99.46447516977787V426.5531102567911H131.55506101250648Q154.7248704880476 343.03643798828125 193.5117036998272 267.1361999511719Q232.2985369116068 191.2359619140625 289.81787237524986 131.9974365234375Q347.33720783889294 72.7589111328125 425.9363627806306 38.3397216796875Q504.53551772236824 3.9205322265625 608.2053175270557 3.9205322265625Q707.730239212513 3.9205322265625 780.3382230848074 39.660061687231064Q852.9462069571018 75.39959114789963 892.3144912645221 141.1021604910493Q931.6827755719423 206.80472983419895 931.6827755719423 297.54648342728615Q931.6827755719423 381.6466421186924 888.2373506724834 438.76950105279684Q844.7919257730246 495.8923599869013 773.0692133232951 537.6151945069432Q701.3465008735657 579.3380290269852 615.6783635243773 615.706239618361Q530.010226175189 652.0744502097368 444.3420888260007 693.3698812127113Q358.67395147681236 734.6653122156858 286.9512390270829 791.5606577694416Q215.22852657735348 848.4560033231974 171.7831016778946 930.8285265639424Q128.3376767784357 1013.2010498046875 128.3376767784357 1132.000732421875Q128.3376767784357 1251.5549413114786 188.1556859537959 1338.5275011733174Q247.9736951291561 1425.5000610351562 346.60080567747355 1472.7500305175781Q445.227916225791 1520 560.8915194571018 1520Q654.628062710166 1520 733.4892944470048 1490.196044921875Q812.3505261838436 1460.39208984375 872.2519127130508 1400.8478073328733L1008.5509856194258 1520H1035.5258391350508V1085.208740234375H1003.9898283928633Q971.9903166741133 1214.1304031163454 912.4983603134751 1303.3695436939597Q853.006403952837 1392.608684271574 768.420281521976 1438.5252332016826Q683.834159091115 1484.4417821317911 576.7138007730246 1484.4417821317911Q447.71847146749496 1484.4417821317911 380.13636983186007 1419.981456167996Q312.55426819622517 1355.5211302042007 312.55426819622517 1250.9080097079277Q312.55426819622517 1175.5701897889376 355.57696843892336 1123.1661980897188Q398.59966868162155 1070.7622063905 469.19964426755905 1030.6167082488537Q539.7996198534966 990.4712101072073 624.6223078891635 953.5530422404408Q709.4449959248304 916.6348743736744 794.1488533467054 873.0940306782722Q878.8527107685804 829.5531869828701 949.4526863545179 769.7623738050461Q1020.0526619404554 709.9715606272221 1063.0753621831536 624.7807840704918Q1106.0980624258518 539.5900075137615 1106.0980624258518 417.999267578125Q1106.0980624258518 281.99951171875 1044.0983065664768 181.56850712746382Q982.0985507071018 81.13750253617764 872.9949130117893 25.964869432151318Q763.8912753164768 -29.207763671875 622.8912753164768 -29.207763671875Z"/></g><g transform="translate(345.28,200.00)"><path transform="translate(0.000,0) scale(0.023000,-0.023000)" d="M413.9646075516939 470.99300695955753V502.72127844393253H1035.4340427070856V470.99300695955753ZM848.5989362597466 1529.207763671875 1367.5375252217054 31.728271484375H1519.853523567319V0H875.8157241046429V31.728271484375H1064.4786166250706L683.1563443392515 1210.8223949968815L270.68610349297523 31.728271484375H489.0021241903305V0H48.526801735162735V31.728271484375H233.93035634477457L761.015793055296 1529.207763671875Z"/><path transform="translate(45.064,0) scale(0.023000,-0.023000)" d="M48.526801735162735 0V31.728271484375H228.61902585625648V1468.271728515625H48.526801735162735V1500H670.6160961687565V1468.271728515625H491.31610837578773V31.728271484375H733.8160800039768Q847.0786018818617 31.728271484375 922.9017219990492 61.26708984375Q998.7248421162367 90.805908203125 1044.8016548603773 145.76025390625Q1090.878467604518 200.714599609375 1113.5201864019036 277.8572998046875Q1136.1619051992893 355 1142.7616366446018 450H1175.044483229518V0Z"/><path transform="translate(82.354,0) scale(0.023000,-0.023000)" d="M48.526801735162735 0V31.728271484375H228.61902585625648V1468.271728515625H48.526801735162735V1500H670.6160961687565V1468.271728515625H491.31610837578773V31.728271484375H733.8160800039768Q847.0786018818617 31.728271484375 922.9017219990492 61.26708984375Q998.7248421162367 90.805908203125 1044.8016548603773 145.76025390625Q1090.878467604518 200.714599609375 1113.5201864019036 277.8572998046875Q1136.1619051992893 355 1142.7616366446018 450H1175.044483229518V0Z"/><path transform="translate(119.644,0) scale(0.023000,-0.023000)" d="M48.526801735162735 0V31.728271484375H228.61902585625648V1468.271728515625H48.526801735162735V1500H1162.0446052998304V1090H1130.4617709219456Q1121.462137132883 1197 1078.7776583731174 1282.7659912109375Q1036.0931796133518 1368.531982421875 957.3046969473362 1418.40185546875Q878.5162142813206 1468.271728515625 761.5162142813206 1468.271728515625H491.31610837578773V31.728271484375H740.8992189547995Q877.9831473406226 31.728271484375 965.0299997958789 83.4942626953125Q1052.076852251135 135.26025390625 1096.7664333115936 229.130126953125Q1141.4560143720519 323 1150.4556481611144 450H1182.1900424063206V0ZM808.2233772724867 538.5553075224161Q799.2237434834242 605.5553075224161 766.0310547120417 655.2023856292169Q732.8383659406593 704.8494637360176 683.2894107731003 732.4134355286758Q633.7404556055412 759.9774073213339 576.7225131094456 759.9774073213339H434.6184378564358V791.468017578125H576.7225131094456Q633.7466805531662 791.468017578125 683.3005501530608 816.6800585463643Q732.8544197529554 841.8920995146036 766.0390816181898 889.4595109631881Q799.2237434834242 937.0269224117726 808.2233772724867 1003.999267578125H840.1893099844456V538.5553075224161Z"/><path transform="translate(157.555,0) scale(0.023000,-0.023000)" d="M409.0021241903305 759.7606261372566V779.0507775992155H702.7728060355968Q798.795342194832 779.0507775992155 864.5573732345285 817.0546484962106Q930.3194042742252 855.0585193932056 963.8194653093815 931.4116290623886Q997.3195263445377 1007.7647387315716 997.3195263445377 1122.7905236929655Q997.3195263445377 1237.7902795523405 963.8194653093815 1314.6200204789639Q930.3194042742252 1391.4497614055872 864.511834991346 1429.860744960606Q798.7042657084667 1468.271728515625 702.7647071033716 1468.271728515625H48.526801735162735V1500H732.7861068525484Q892.7766563642238 1500 1013.5195525834071 1459.8362746983767Q1134.2624488025904 1419.6725493967533 1201.6310657933354 1336.2315365448594Q1268.9996827840805 1252.7905236929655 1268.9996827840805 1122.7905236929655Q1268.9996827840805 992.7905236929655 1205.7498964071274 912.8618588592745Q1142.5001100301743 832.9331940255836 1022.6185492542379 796.3469100814201Q902.7369884783014 759.7606261372566 732.7634864002466 759.7606261372566ZM48.526801735162735 0V31.728271484375H727.3170849382877V0ZM256.6195141375065 17.052490234375V1480.8083653002977H518.7620215564966V17.052490234375ZM1222.7634864002466 -12.9998779296875Q1126.7638526111841 -12.9998779296875 1072.4140906482935 18.99820679317915Q1018.0643286854029 50.9962915160458 992.7644629627466 105.3456926868446Q967.4645972400904 159.6950938576434 960.4646582752466 227.2915441260012Q953.4647193104029 294.88799439435905 952.6147132068872 367.0180406938581Q951.7647071033716 439.14808699335714 945.6646704822779 506.744537261715Q939.5646338611841 574.3409875300728 916.7645850330591 628.7057732772664Q893.9645362049341 683.0705590244602 842.357780600919 715.0777019558584Q790.7510249969039 747.0848448872566 698.7392507792131 747.0848448872566H409.0021241903305V764.5528624653816H810.7615332752466Q951.6641670862833 764.5528624653816 1034.3447389875848 724.8419041186571Q1117.0253108888865 685.1309457719326 1158.1838288605213 619.4037729203701Q1199.3423468321562 553.6766000688076 1212.9657952710986 475.4462325423956Q1226.589243710041 397.2158650159836 1227.2250004038215 318.98549748957157Q1227.860757097602 240.75512996315956 1230.6926197484136 175.02795711159706Q1233.5244823992252 109.30078426003456 1252.397188745439 69.58982591331005Q1271.2698950916529 29.87886756658554 1322.6061697900295 29.87886756658554Q1354.6061697900295 29.87886756658554 1380.8267958685756 36.72623314708471Q1407.0474219471216 43.573598727583885 1427.4928468465805 53.573598727583885L1438.7620215564966 23.607666015625Q1414.7620215564966 10.607666015625 1357.2987357079983 -1.19610595703125Q1299.8354498595 -12.9998779296875 1222.7634864002466 -12.9998779296875Z"/><path transform="translate(221.463,0) scale(0.023000,-0.023000)" d="M698.6653590603947 1500Q885.6163403093815 1500 1004.2521032664408 1447.146135515326Q1122.8878662235002 1394.2922710306523 1179.824577679061 1298.1453275520144Q1236.7612891346216 1201.9983840733767 1236.7612891346216 1072.0544565953112Q1236.7612891346216 942.1105291172456 1179.8210579323036 848.6901078867961Q1122.8808267299853 755.2696866563466 1004.2835963301422 705.226620861466Q885.6863659302992 655.1835550665855 698.6165844500065 655.1835550665855H491.31610837578773V31.728271484375H670.6160961687565V0H48.526801735162735V31.728271484375H228.61902585625648V1468.271728515625H48.526801735162735V1500ZM491.31610837578773 686.9118265509605H674.6175610125065Q742.0932221906107 686.9118265509605 792.5784092270693 721.431235730648Q843.0635962635279 755.9506449103355 876.8410669192672 812.6912678106901Q910.6185375750065 869.4318907110447 927.618659645319 937.2883544198718Q944.6187817156315 1005.1448181286988 944.6187817156315 1072.0861920021828Q944.6187817156315 1139.0275658756666 927.618659645319 1208.621317212292Q910.6185375750065 1278.2150685489178 876.8410669192672 1337.1350562945008Q843.0635962635279 1396.0550440400839 792.6192807690775 1432.1633862778544Q742.1749652746271 1468.271728515625 674.6175610125065 1468.271728515625H491.31610837578773Z"/><path transform="translate(260.984,0) scale(0.023000,-0.023000)" d="M761.7725999802351 -20Q605.2484917063744 -20 482.02964501178417 38.750030517578125Q358.810798317194 97.50006103515625 272.8921019807458 202.86892216652632Q186.9734056442976 308.2377832978964 142.30077254027128 448.0575764573143Q97.62813943624496 587.8773696167323 97.62813943624496 750Q97.62813943624496 912.1226303832677 145.09715755937077 1051.9424235426857Q192.56617568249655 1191.7622167021036 280.1701227809594 1297.1310778334737Q367.77406987942226 1402.4999389648438 490.0234264825631 1461.2499694824219Q612.2727830857038 1520 761.7725999802351 1520Q911.2724168747663 1520 1033.1222398728132 1461.2499694824219Q1154.97206287086 1402.4999389648438 1242.9219224900007 1297.1310778334737Q1330.8717821091413 1191.7622167021036 1377.9716966599226 1051.9424235426857Q1425.0716112107038 912.1226303832677 1425.0716112107038 750Q1425.0716112107038 587.8773696167323 1380.4716966599226 448.0575764573143Q1335.8717821091413 308.2377832978964 1250.3030918762088 202.86892216652632Q1164.7344016432762 97.50006103515625 1041.515554948686 38.750030517578125Q918.2967082540958 -20 761.7725999802351 -20ZM761.7725999802351 9.589223727583885Q876.8732469528913 9.589223727583885 947.9236314743757 69.07820688188076Q1018.9740159958601 128.56719003617764 1057.4514988586307 232.04506962746382Q1095.9289817214012 335.52294921875 1109.779048860073 469.06170654296875Q1123.629115998745 602.6004638671875 1123.629115998745 750.1038818359375Q1123.629115998745 897.5449732393026 1106.8517674133182 1031.0110120102763Q1090.0744188278913 1164.47705078125 1049.9514988586307 1267.9549303725362Q1009.82857888937 1371.4328099638224 939.4693012273353 1430.9217931181192Q869.1100235653008 1490.4107762724161 761.7725999802351 1490.4107762724161Q654.6719530075788 1490.4107762724161 584.1215684860945 1430.9087649899034Q513.5711839646101 1371.4067537073906 473.17097644507885 1267.9380459183685Q432.7707689255476 1164.4693381293462 415.9207017868757 1031.0071556843245Q399.07063464820385 897.5449732393026 399.07063464820385 750.0727185532451Q399.07063464820385 602.6004638671875 413.27070789039135 469.0480530645985Q427.47078113257885 335.4956422620095 465.67097644507885 232.0379302132015Q503.87117175757885 128.58021816439353 575.6215684860945 69.0847209459887Q647.3719652146101 9.589223727583885 761.7725999802351 9.589223727583885Z"/><path transform="translate(304.990,0) scale(0.023000,-0.023000)" d="M285.38520017266273 1500V31.728271484375H519.2462998479605V0H48.526801735162735V31.728271484375H252.07245603203773V1468.271728515625H48.526801735162735V1500ZM1494.3073090016842 1500V1468.271728515625H1283.752733901143V-20H1239.9085127246308L262.2324805408716 1500H575.8459642380476L1250.9945648610592 429.7678706198931V1468.2819331170103H1021.9854966253042V1500Z"/><path transform="translate(349.456,0) scale(0.023000,-0.023000)" d="M332.1924838125706 0V31.728271484375H552.1924838125706V1468.271728515625H398.1490619348155Q314.82970066134095 1468.271728515625 257.3759038809138 1436.0330200195312Q199.92210710048676 1403.7943115234375 163.52144547427693 1345.2401123046875Q127.12078384806712 1286.6859130859375 107.66312469169497 1206.8433227539062Q88.20546553532283 1127.000732421875 81.30574629704158 1032.000732421875H48.526801735162735V1500H1317.6175749748945V1032.000732421875H1285.7213879506119Q1279.1216565052994 1127.000732421875 1259.5138161321643 1206.8433227539062Q1239.9059757590294 1286.6859130859375 1203.2290653586388 1345.2401123046875Q1166.5521549582481 1403.7943115234375 1109.0289615988731 1436.0330200195312Q1051.5057682394981 1468.271728515625 968.3067297057974 1468.271728515625H814.1895541250706V31.728271484375H1034.1895541250706V0Z"/><path transform="translate(389.851,0) scale(0.023000,-0.023000)" d="M48.526801735162735 0V31.728271484375H228.61902585625648V1468.271728515625H48.526801735162735V1500H1162.0446052998304V1090H1130.4617709219456Q1121.462137132883 1197 1078.7776583731174 1282.7659912109375Q1036.0931796133518 1368.531982421875 957.3046969473362 1418.40185546875Q878.5162142813206 1468.271728515625 761.5162142813206 1468.271728515625H491.31610837578773V31.728271484375H740.8992189547995Q877.9831473406226 31.728271484375 965.0299997958789 83.4942626953125Q1052.076852251135 135.26025390625 1096.7664333115936 229.130126953125Q1141.4560143720519 323 1150.4556481611144 450H1182.1900424063206V0ZM808.2233772724867 538.5553075224161Q799.2237434834242 605.5553075224161 766.0310547120417 655.2023856292169Q732.8383659406593 704.8494637360176 683.2894107731003 732.4134355286758Q633.7404556055412 759.9774073213339 576.7225131094456 759.9774073213339H434.6184378564358V791.468017578125H576.7225131094456Q633.7466805531662 791.468017578125 683.3005501530608 816.6800585463643Q732.8544197529554 841.8920995146036 766.0390816181898 889.4595109631881Q799.2237434834242 937.0269224117726 808.2233772724867 1003.999267578125H840.1893099844456V538.5553075224161Z"/></g></svg>
